<svg width="183" height="164" viewBox="0 0 183 164" fill="none" xmlns="http://www.w3.org/2000/svg">
<g filter="url(#filter0_d_35_366)">
<path d="M92.2099 0L98.2746 9.03724L108.842 11.9472L102.023 20.4425L102.489 31.2783L92.2099 27.4914L81.9306 31.2783L82.3969 20.4425L75.5776 11.9472L86.1451 9.03724L92.2099 0Z" fill="#7A450F"/>
<mask id="path-2-inside-1_35_366" fill="white">
<path fill-rule="evenodd" clip-rule="evenodd" d="M91.911 85.1205C90.3545 84.6328 88.697 84.3698 86.9773 84.3698C82.8674 84.3698 79.1125 85.8722 76.2438 88.3519C73.3751 85.8722 69.6202 84.3698 65.5103 84.3698C63.4518 84.3698 61.4824 84.7467 59.6687 85.4345C60.8112 77.6307 67.6047 71.6354 75.8145 71.6354C83.9137 71.6354 90.6346 77.4704 91.911 85.1205Z"/>
</mask>
<path d="M91.911 85.1205L91.3131 87.029L94.4195 88.0022L93.8838 84.7913L91.911 85.1205ZM76.2438 88.3519L74.9359 89.8649L76.2438 90.9954L77.5517 89.8649L76.2438 88.3519ZM59.6687 85.4345L57.6898 85.1448L57.197 88.511L60.3779 87.3046L59.6687 85.4345ZM86.9773 86.3698C88.492 86.3698 89.9481 86.6013 91.3131 87.029L92.509 83.212C90.761 82.6643 88.9019 82.3698 86.9773 82.3698V86.3698ZM77.5517 89.8649C80.069 87.6891 83.3632 86.3698 86.9773 86.3698V82.3698C82.3717 82.3698 78.1561 84.0553 74.9359 86.8388L77.5517 89.8649ZM65.5103 86.3698C69.1244 86.3698 72.4187 87.6891 74.9359 89.8649L77.5517 86.8388C74.3315 84.0553 70.1159 82.3698 65.5103 82.3698V86.3698ZM60.3779 87.3046C61.9682 86.7014 63.6976 86.3698 65.5103 86.3698V82.3698C63.2061 82.3698 60.9965 82.7919 58.9595 83.5645L60.3779 87.3046ZM61.6476 85.7243C62.646 78.9053 68.5946 73.6354 75.8145 73.6354V69.6354C66.6148 69.6354 58.9765 76.3561 57.6898 85.1448L61.6476 85.7243ZM75.8145 73.6354C82.9367 73.6354 88.8228 78.7643 89.9383 85.4496L93.8838 84.7913C92.4464 76.1765 84.8908 69.6354 75.8145 69.6354V73.6354Z" fill="#7A450F" fill-opacity="0.7" mask="url(#path-2-inside-1_35_366)"/>
<mask id="path-4-inside-2_35_366" fill="white">
<path fill-rule="evenodd" clip-rule="evenodd" d="M107.82 99.4195C106.264 98.9319 104.606 98.6688 102.886 98.6688C98.7766 98.6688 95.0217 100.171 92.153 102.651C89.2843 100.171 85.5293 98.6688 81.4195 98.6688C79.361 98.6688 77.3915 99.0457 75.5779 99.7336C76.7205 91.9297 83.5139 85.9345 91.7236 85.9345C99.8229 85.9345 106.544 91.7695 107.82 99.4195Z"/>
</mask>
<path d="M107.82 99.4195L107.222 101.328L110.329 102.301L109.793 99.0904L107.82 99.4195ZM92.153 102.651L90.8451 104.164L92.153 105.294L93.4609 104.164L92.153 102.651ZM75.5779 99.7336L73.599 99.4438L73.1061 102.81L76.2871 101.604L75.5779 99.7336ZM102.886 100.669C104.401 100.669 105.857 100.9 107.222 101.328L108.418 97.511C106.67 96.9634 104.811 96.6688 102.886 96.6688V100.669ZM93.4609 104.164C95.9781 101.988 99.2724 100.669 102.886 100.669V96.6688C98.2808 96.6688 94.0653 98.3544 90.8451 101.138L93.4609 104.164ZM81.4195 100.669C85.0336 100.669 88.3278 101.988 90.8451 104.164L93.4609 101.138C90.2407 98.3544 86.0251 96.6688 81.4195 96.6688V100.669ZM76.2871 101.604C77.8774 101 79.6067 100.669 81.4195 100.669V96.6688C79.1152 96.6688 76.9057 97.091 74.8687 97.8635L76.2871 101.604ZM77.5568 100.023C78.5552 93.2043 84.5038 87.9345 91.7236 87.9345V83.9345C82.524 83.9345 74.8857 90.6551 73.599 99.4438L77.5568 100.023ZM91.7236 87.9345C98.8459 87.9345 104.732 93.0633 105.847 99.7487L109.793 99.0904C108.356 90.4756 100.8 83.9345 91.7236 83.9345V87.9345Z" fill="#7A450F" fill-opacity="0.7" mask="url(#path-4-inside-2_35_366)"/>
<mask id="path-6-inside-3_35_366" fill="white">
<path fill-rule="evenodd" clip-rule="evenodd" d="M73.1095 99.4195C71.553 98.9319 69.8955 98.6688 68.1758 98.6688C64.0659 98.6688 60.311 100.171 57.4423 102.651C54.5736 100.171 50.8187 98.6688 46.7088 98.6688C44.6503 98.6688 42.6808 99.0457 40.8672 99.7336C42.0098 91.9297 48.8032 85.9345 57.0129 85.9345C65.1122 85.9345 71.833 91.7695 73.1095 99.4195Z"/>
</mask>
<path d="M73.1095 99.4195L72.5116 101.328L75.618 102.301L75.0822 99.0904L73.1095 99.4195ZM57.4423 102.651L56.1344 104.164L57.4423 105.294L58.7502 104.164L57.4423 102.651ZM40.8672 99.7336L38.8883 99.4438L38.3954 102.81L41.5764 101.604L40.8672 99.7336ZM68.1758 100.669C69.6905 100.669 71.1465 100.9 72.5116 101.328L73.7074 97.511C71.9595 96.9634 70.1004 96.6688 68.1758 96.6688V100.669ZM58.7502 104.164C61.2674 101.988 64.5617 100.669 68.1758 100.669V96.6688C63.5701 96.6688 59.3546 98.3544 56.1344 101.138L58.7502 104.164ZM46.7088 100.669C50.3229 100.669 53.6171 101.988 56.1344 104.164L58.7502 101.138C55.53 98.3544 51.3144 96.6688 46.7088 96.6688V100.669ZM41.5764 101.604C43.1667 101 44.8961 100.669 46.7088 100.669V96.6688C44.4046 96.6688 42.195 97.091 40.158 97.8635L41.5764 101.604ZM42.8461 100.023C43.8445 93.2043 49.7931 87.9345 57.0129 87.9345V83.9345C47.8133 83.9345 40.1751 90.6551 38.8883 99.4438L42.8461 100.023ZM57.0129 87.9345C64.1352 87.9345 70.0213 93.0633 71.1368 99.7487L75.0822 99.0904C73.6448 90.4756 66.0893 83.9345 57.0129 83.9345V87.9345Z" fill="#7A450F" fill-opacity="0.7" mask="url(#path-6-inside-3_35_366)"/>
<mask id="path-8-inside-4_35_366" fill="white">
<path fill-rule="evenodd" clip-rule="evenodd" d="M109.267 70.8214C107.71 70.3338 106.052 70.0707 104.333 70.0707C100.223 70.0707 96.468 71.5731 93.5993 74.0528C90.7305 71.5731 86.9756 70.0707 82.8658 70.0707C80.8073 70.0707 78.8378 70.4476 77.0242 71.1355C78.1667 63.3316 84.9602 57.3363 93.1699 57.3363C101.269 57.3363 107.99 63.1713 109.267 70.8214Z"/>
</mask>
<path d="M109.267 70.8214L108.669 72.7299L111.775 73.7031L111.239 70.4922L109.267 70.8214ZM93.5993 74.0528L92.2914 75.5659L93.5993 76.6964L94.9072 75.5659L93.5993 74.0528ZM77.0242 71.1355L75.0453 70.8457L74.5524 74.2119L77.7334 73.0055L77.0242 71.1355ZM104.333 72.0707C105.847 72.0707 107.304 72.3023 108.669 72.7299L109.864 68.9129C108.116 68.3652 106.257 68.0707 104.333 68.0707V72.0707ZM94.9072 75.5659C97.4244 73.39 100.719 72.0707 104.333 72.0707V68.0707C99.7271 68.0707 95.5116 69.7562 92.2914 72.5397L94.9072 75.5659ZM82.8658 72.0707C86.4799 72.0707 89.7741 73.39 92.2914 75.5659L94.9072 72.5397C91.687 69.7562 87.4714 68.0707 82.8658 68.0707V72.0707ZM77.7334 73.0055C79.3237 72.4023 81.053 72.0707 82.8658 72.0707V68.0707C80.5615 68.0707 78.352 68.4929 76.3149 69.2654L77.7334 73.0055ZM79.0031 71.4252C80.0014 64.6062 85.9501 59.3363 93.1699 59.3363V55.3363C83.9702 55.3363 76.332 62.057 75.0453 70.8457L79.0031 71.4252ZM93.1699 59.3363C100.292 59.3363 106.178 64.4652 107.294 71.1506L111.239 70.4922C109.802 61.8775 102.246 55.3363 93.1699 55.3363V59.3363Z" fill="#7A450F" fill-opacity="0.7" mask="url(#path-8-inside-4_35_366)"/>
<mask id="path-10-inside-5_35_366" fill="white">
<path fill-rule="evenodd" clip-rule="evenodd" d="M126.622 85.1205C125.065 84.6328 123.408 84.3698 121.688 84.3698C117.578 84.3698 113.823 85.8722 110.955 88.3519C108.086 85.8722 104.331 84.3698 100.221 84.3698C98.1625 84.3698 96.1931 84.7467 94.3794 85.4345C95.5219 77.6307 102.315 71.6354 110.525 71.6354C118.624 71.6354 125.345 77.4704 126.622 85.1205Z"/>
</mask>
<path d="M126.622 85.1205L126.024 87.029L129.13 88.0022L128.594 84.7913L126.622 85.1205ZM110.955 88.3519L109.647 89.8649L110.954 90.9954L112.262 89.8649L110.955 88.3519ZM94.3794 85.4345L92.4005 85.1448L91.9077 88.511L95.0886 87.3046L94.3794 85.4345ZM121.688 86.3698C123.203 86.3698 124.659 86.6013 126.024 87.029L127.22 83.212C125.472 82.6643 123.613 82.3698 121.688 82.3698V86.3698ZM112.262 89.8649C114.78 87.6891 118.074 86.3698 121.688 86.3698V82.3698C117.082 82.3698 112.867 84.0553 109.647 86.8388L112.262 89.8649ZM100.221 86.3698C103.835 86.3698 107.129 87.6891 109.647 89.8649L112.262 86.8388C109.042 84.0553 104.827 82.3698 100.221 82.3698V86.3698ZM95.0886 87.3046C96.6789 86.7014 98.4083 86.3698 100.221 86.3698V82.3698C97.9168 82.3698 95.7072 82.7919 93.6702 83.5645L95.0886 87.3046ZM96.3583 85.7243C97.3567 78.9053 103.305 73.6354 110.525 73.6354V69.6354C101.325 69.6354 93.6872 76.3561 92.4005 85.1448L96.3583 85.7243ZM110.525 73.6354C117.647 73.6354 123.534 78.7643 124.649 85.4496L128.594 84.7913C127.157 76.1765 119.601 69.6354 110.525 69.6354V73.6354Z" fill="#7A450F" fill-opacity="0.7" mask="url(#path-10-inside-5_35_366)"/>
<mask id="path-12-inside-6_35_366" fill="white">
<path fill-rule="evenodd" clip-rule="evenodd" d="M142.531 99.4195C140.974 98.9319 139.317 98.6688 137.597 98.6688C133.487 98.6688 129.732 100.171 126.864 102.651C123.995 100.171 120.24 98.6688 116.13 98.6688C114.072 98.6688 112.102 99.0457 110.289 99.7336C111.431 91.9297 118.225 85.9345 126.434 85.9345C134.534 85.9345 141.254 91.7695 142.531 99.4195Z"/>
</mask>
<path d="M142.531 99.4195L141.933 101.328L145.039 102.301L144.504 99.0904L142.531 99.4195ZM126.864 102.651L125.556 104.164L126.864 105.294L128.172 104.164L126.864 102.651ZM110.289 99.7336L108.31 99.4438L107.817 102.81L110.998 101.604L110.289 99.7336ZM137.597 100.669C139.112 100.669 140.568 100.9 141.933 101.328L143.129 97.511C141.381 96.9634 139.522 96.6688 137.597 96.6688V100.669ZM128.172 104.164C130.689 101.988 133.983 100.669 137.597 100.669V96.6688C132.992 96.6688 128.776 98.3544 125.556 101.138L128.172 104.164ZM116.13 100.669C119.744 100.669 123.039 101.988 125.556 104.164L128.172 101.138C124.951 98.3544 120.736 96.6688 116.13 96.6688V100.669ZM110.998 101.604C112.588 101 114.317 100.669 116.13 100.669V96.6688C113.826 96.6688 111.616 97.091 109.579 97.8635L110.998 101.604ZM112.267 100.023C113.266 93.2043 119.215 87.9345 126.434 87.9345V83.9345C117.235 83.9345 109.596 90.6551 108.31 99.4438L112.267 100.023ZM126.434 87.9345C133.557 87.9345 139.443 93.0633 140.558 99.7487L144.504 99.0904C143.066 90.4756 135.511 83.9345 126.434 83.9345V87.9345Z" fill="#7A450F" fill-opacity="0.7" mask="url(#path-12-inside-6_35_366)"/>
<mask id="path-14-inside-7_35_366" fill="white">
<path fill-rule="evenodd" clip-rule="evenodd" d="M159.886 115.149C158.33 114.661 156.672 114.398 154.953 114.398C150.843 114.398 147.088 115.9 144.219 118.38C141.35 115.9 137.596 114.398 133.486 114.398C131.427 114.398 129.458 114.775 127.644 115.463C128.787 107.659 135.58 101.663 143.79 101.663C151.889 101.663 158.61 107.498 159.886 115.149Z"/>
</mask>
<path d="M159.886 115.149L159.288 117.057L162.395 118.03L161.859 114.819L159.886 115.149ZM144.219 118.38L142.911 119.893L144.219 121.023L145.527 119.893L144.219 118.38ZM127.644 115.463L125.665 115.173L125.172 118.539L128.353 117.333L127.644 115.463ZM154.953 116.398C156.467 116.398 157.923 116.629 159.288 117.057L160.484 113.24C158.736 112.692 156.877 112.398 154.953 112.398V116.398ZM145.527 119.893C148.044 117.717 151.339 116.398 154.953 116.398V112.398C150.347 112.398 146.131 114.083 142.911 116.867L145.527 119.893ZM133.486 116.398C137.1 116.398 140.394 117.717 142.911 119.893L145.527 116.867C142.307 114.083 138.091 112.398 133.486 112.398V116.398ZM128.353 117.333C129.944 116.729 131.673 116.398 133.486 116.398V112.398C131.181 112.398 128.972 112.82 126.935 113.593L128.353 117.333ZM129.623 115.752C130.621 108.933 136.57 103.663 143.79 103.663V99.6635C134.59 99.6635 126.952 106.384 125.665 115.173L129.623 115.752ZM143.79 103.663C150.912 103.663 156.798 108.792 157.914 115.478L161.859 114.819C160.422 106.205 152.866 99.6635 143.79 99.6635V103.663Z" fill="#7A450F" fill-opacity="0.7" mask="url(#path-14-inside-7_35_366)"/>
<mask id="path-16-inside-8_35_366" fill="white">
<path fill-rule="evenodd" clip-rule="evenodd" d="M126.622 115.149C125.065 114.661 123.408 114.398 121.688 114.398C117.578 114.398 113.823 115.9 110.955 118.38C108.086 115.9 104.331 114.398 100.221 114.398C98.1625 114.398 96.1931 114.775 94.3794 115.463C95.522 107.659 102.315 101.663 110.525 101.663C118.624 101.663 125.345 107.498 126.622 115.149Z"/>
</mask>
<path d="M126.622 115.149L126.024 117.057L129.13 118.03L128.594 114.819L126.622 115.149ZM110.955 118.38L109.647 119.893L110.954 121.023L112.262 119.893L110.955 118.38ZM94.3794 115.463L92.4005 115.173L91.9076 118.539L95.0886 117.333L94.3794 115.463ZM121.688 116.398C123.203 116.398 124.659 116.629 126.024 117.057L127.22 113.24C125.472 112.692 123.613 112.398 121.688 112.398V116.398ZM112.262 119.893C114.78 117.717 118.074 116.398 121.688 116.398V112.398C117.082 112.398 112.867 114.083 109.647 116.867L112.262 119.893ZM100.221 116.398C103.835 116.398 107.129 117.717 109.647 119.893L112.262 116.867C109.042 114.083 104.827 112.398 100.221 112.398V116.398ZM95.0886 117.333C96.6789 116.729 98.4083 116.398 100.221 116.398V112.398C97.9168 112.398 95.7072 112.82 93.6702 113.593L95.0886 117.333ZM96.3583 115.752C97.3567 108.933 103.305 103.663 110.525 103.663V99.6635C101.325 99.6635 93.6873 106.384 92.4005 115.173L96.3583 115.752ZM110.525 103.663C117.647 103.663 123.533 108.792 124.649 115.478L128.594 114.819C127.157 106.205 119.601 99.6635 110.525 99.6635V103.663Z" fill="#7A450F" fill-opacity="0.7" mask="url(#path-16-inside-8_35_366)"/>
<mask id="path-18-inside-9_35_366" fill="white">
<path fill-rule="evenodd" clip-rule="evenodd" d="M93.3573 115.149C91.8008 114.661 90.1433 114.398 88.4235 114.398C84.3137 114.398 80.5588 115.9 77.6901 118.38C74.8214 115.9 71.0665 114.398 66.9566 114.398C64.8981 114.398 62.9287 114.775 61.115 115.463C62.2576 107.659 69.051 101.663 77.2607 101.663C85.36 101.663 92.0808 107.498 93.3573 115.149Z"/>
</mask>
<path d="M93.3573 115.149L92.7594 117.057L95.8658 118.03L95.33 114.819L93.3573 115.149ZM77.6901 118.38L76.3822 119.893L77.6901 121.023L78.998 119.893L77.6901 118.38ZM61.115 115.463L59.1361 115.173L58.6432 118.539L61.8242 117.333L61.115 115.463ZM88.4235 116.398C89.9383 116.398 91.3943 116.629 92.7594 117.057L93.9552 113.24C92.2073 112.692 90.3482 112.398 88.4235 112.398V116.398ZM78.998 119.893C81.5152 117.717 84.8095 116.398 88.4235 116.398V112.398C83.8179 112.398 79.6024 114.083 76.3822 116.867L78.998 119.893ZM66.9566 116.398C70.5707 116.398 73.8649 117.717 76.3822 119.893L78.998 116.867C75.7778 114.083 71.5622 112.398 66.9566 112.398V116.398ZM61.8242 117.333C63.4145 116.729 65.1439 116.398 66.9566 116.398V112.398C64.6524 112.398 62.4428 112.82 60.4058 113.593L61.8242 117.333ZM63.0939 115.752C64.0923 108.933 70.0409 103.663 77.2607 103.663V99.6635C68.0611 99.6635 60.4229 106.384 59.1361 115.173L63.0939 115.752ZM77.2607 103.663C84.383 103.663 90.2691 108.792 91.3846 115.478L95.33 114.819C93.8926 106.205 86.3371 99.6635 77.2607 99.6635V103.663Z" fill="#7A450F" fill-opacity="0.7" mask="url(#path-18-inside-9_35_366)"/>
<mask id="path-20-inside-10_35_366" fill="white">
<path fill-rule="evenodd" clip-rule="evenodd" d="M60.0929 115.149C58.5364 114.661 56.8789 114.398 55.1591 114.398C51.0493 114.398 47.2944 115.9 44.4257 118.38C41.557 115.9 37.8021 114.398 33.6922 114.398C31.6337 114.398 29.6642 114.775 27.8506 115.463C28.9932 107.659 35.7866 101.663 43.9963 101.663C52.0956 101.663 58.8164 107.498 60.0929 115.149Z"/>
</mask>
<path d="M60.0929 115.149L59.495 117.057L62.6014 118.03L62.0656 114.819L60.0929 115.149ZM44.4257 118.38L43.1178 119.893L44.4257 121.023L45.7336 119.893L44.4257 118.38ZM27.8506 115.463L25.8717 115.173L25.3788 118.539L28.5598 117.333L27.8506 115.463ZM55.1591 116.398C56.6739 116.398 58.1299 116.629 59.495 117.057L60.6908 113.24C58.9429 112.692 57.0838 112.398 55.1591 112.398V116.398ZM45.7336 119.893C48.2508 117.717 51.5451 116.398 55.1591 116.398V112.398C50.5535 112.398 46.338 114.083 43.1178 116.867L45.7336 119.893ZM33.6922 116.398C37.3063 116.398 40.6005 117.717 43.1178 119.893L45.7336 116.867C42.5134 114.083 38.2978 112.398 33.6922 112.398V116.398ZM28.5598 117.333C30.1501 116.729 31.8795 116.398 33.6922 116.398V112.398C31.388 112.398 29.1784 112.82 27.1414 113.593L28.5598 117.333ZM29.8295 115.752C30.8279 108.933 36.7765 103.663 43.9963 103.663V99.6635C34.7967 99.6635 27.1585 106.384 25.8717 115.173L29.8295 115.752ZM43.9963 103.663C51.1186 103.663 57.0047 108.792 58.1202 115.478L62.0656 114.819C60.6282 106.205 53.0727 99.6635 43.9963 99.6635V103.663Z" fill="#7A450F" fill-opacity="0.7" mask="url(#path-20-inside-10_35_366)"/>
<path fill-rule="evenodd" clip-rule="evenodd" d="M68.3464 16.9981C40.1408 26.749 19.9091 53.2908 19.9091 84.5045C19.9091 89.4015 20.407 94.1835 21.3556 98.8036H27.2707C26.2385 94.2001 25.6942 89.4152 25.6942 84.5045C25.6942 56.4976 43.3988 32.5789 68.3464 23.0918V16.9981ZM20.8616 111.673L21.3554 111.673L25.3131 111.673L38.7107 111.673L63.2975 111.673H119.702L145.736 111.673L159.133 111.673H162.138L163.091 111.673V109.788C164.646 107.477 167.304 105.953 170.322 105.953C175.115 105.953 179 109.794 179 114.533C179 119.271 175.115 123.112 170.322 123.112C166.544 123.112 163.33 120.725 162.138 117.392H156.449C144.409 140.33 120.167 156 92.2231 156C64.2794 156 40.0376 140.33 27.9972 117.392H20.8616C19.6703 120.725 16.456 123.112 12.6777 123.112C7.88513 123.112 4 119.271 4 114.533C4 109.794 7.88513 105.953 12.6777 105.953C16.456 105.953 19.6703 108.341 20.8616 111.673ZM163.091 98.8036C164.039 94.1835 164.537 89.4015 164.537 84.5045C164.537 53.2811 144.293 26.7325 116.074 16.989V23.0818C141.035 32.5621 158.752 56.4877 158.752 84.5045C158.752 89.4152 158.208 94.2001 157.176 98.8036H163.091Z" fill="#7A450F"/>
</g>
<defs>
<filter id="filter0_d_35_366" x="0" y="0" width="183" height="164" filterUnits="userSpaceOnUse" color-interpolation-filters="sRGB">
<feFlood flood-opacity="0" result="BackgroundImageFix"/>
<feColorMatrix in="SourceAlpha" type="matrix" values="0 0 0 0 0 0 0 0 0 0 0 0 0 0 0 0 0 0 127 0" result="hardAlpha"/>
<feOffset dy="4"/>
<feGaussianBlur stdDeviation="2"/>
<feComposite in2="hardAlpha" operator="out"/>
<feColorMatrix type="matrix" values="0 0 0 0 0 0 0 0 0 0 0 0 0 0 0 0 0 0 0.25 0"/>
<feBlend mode="normal" in2="BackgroundImageFix" result="effect1_dropShadow_35_366"/>
<feBlend mode="normal" in="SourceGraphic" in2="effect1_dropShadow_35_366" result="shape"/>
</filter>
</defs>
</svg>
